STARTFONT 2.2
FONT -donovan-dondo-medium-r-normal--7-70-72-72-c-5-ISO10646-1
SIZE 7 72 72
FONTBOUNDINGBOX 5 7 0 0
STARTPROPERTIES 11
FONT_ASCENT 7
FONT_DESCENT 0
CHARSET_REGISTRY ISO10646
CHARSET_ENCODING 1
CHARSET_COLLECTIONS ISO10646-1
SETWIDTH_NAME normal
PIXEL_SIZE 7
POINT_SIZE 70
RESOLUTION_X 72
RESOLUTION_Y 72
SPACING c
ENDPROPERTIES
CHARS 95
STARTCHAR 0
ENCODING 48
SWIDTH 500
DWIDTH 5 0
BBX 5 7 0 0
BITMAP
20
50
50
50
50
50
20
ENDCHAR
STARTCHAR 1
ENCODING 49
SWIDTH 500
DWIDTH 5 0
BBX 5 7 0 0
BITMAP
20
60
20
20
20
20
70
ENDCHAR
STARTCHAR 2
ENCODING 50
SWIDTH 500
DWIDTH 5 0
BBX 5 7 0 0
BITMAP
20
50
50
10
20
40
70
ENDCHAR
STARTCHAR 3
ENCODING 51
SWIDTH 500
DWIDTH 5 0
BBX 5 7 0 0
BITMAP
60
10
10
60
10
10
60
ENDCHAR
STARTCHAR 4
ENCODING 52
SWIDTH 500
DWIDTH 5 0
BBX 5 7 0 0
BITMAP
50
50
50
70
10
10
10
ENDCHAR
STARTCHAR 5
ENCODING 53
SWIDTH 500
DWIDTH 5 0
BBX 5 7 0 0
BITMAP
70
40
40
70
10
10
70
ENDCHAR
STARTCHAR 6
ENCODING 54
SWIDTH 500
DWIDTH 5 0
BBX 5 7 0 0
BITMAP
70
40
40
70
50
50
70
ENDCHAR
STARTCHAR 7
ENCODING 55
SWIDTH 500
DWIDTH 5 0
BBX 5 7 0 0
BITMAP
70
10
10
10
10
10
10
ENDCHAR
STARTCHAR 8
ENCODING 56
SWIDTH 500
DWIDTH 5 0
BBX 5 7 0 0
BITMAP
70
50
50
70
50
50
70
ENDCHAR
STARTCHAR 9
ENCODING 57
SWIDTH 500
DWIDTH 5 0
BBX 5 7 0 0
BITMAP
70
50
50
70
10
10
10
ENDCHAR
STARTCHAR A
ENCODING 65
SWIDTH 500
DWIDTH 5 0
BBX 5 7 0 0
BITMAP
20
50
50
50
88
f8
88
ENDCHAR
STARTCHAR B
ENCODING 66
SWIDTH 500
DWIDTH 5 0
BBX 5 7 0 0
BITMAP
e0
90
90
f0
88
88
f0
ENDCHAR
STARTCHAR C
ENCODING 67
SWIDTH 500
DWIDTH 5 0
BBX 5 7 0 0
BITMAP
70
80
80
80
80
80
70
ENDCHAR
STARTCHAR D
ENCODING 68
SWIDTH 500
DWIDTH 5 0
BBX 5 7 0 0
BITMAP
c0
a0
90
90
90
a0
c0
ENDCHAR
STARTCHAR E
ENCODING 69
SWIDTH 500
DWIDTH 5 0
BBX 5 7 0 0
BITMAP
f0
80
80
e0
80
80
f0
ENDCHAR
STARTCHAR F
ENCODING 70
SWIDTH 500
DWIDTH 5 0
BBX 5 7 0 0
BITMAP
f0
80
80
e0
80
80
80
ENDCHAR
STARTCHAR G
ENCODING 71
SWIDTH 500
DWIDTH 5 0
BBX 5 7 0 0
BITMAP
70
80
80
b8
88
88
70
ENDCHAR
STARTCHAR H
ENCODING 72
SWIDTH 500
DWIDTH 5 0
BBX 5 7 0 0
BITMAP
90
90
90
f0
90
90
90
ENDCHAR
STARTCHAR I
ENCODING 73
SWIDTH 500
DWIDTH 5 0
BBX 5 7 0 0
BITMAP
70
20
20
20
20
20
70
ENDCHAR
STARTCHAR J
ENCODING 74
SWIDTH 500
DWIDTH 5 0
BBX 5 7 0 0
BITMAP
78
10
10
10
10
90
60
ENDCHAR
STARTCHAR K
ENCODING 75
SWIDTH 500
DWIDTH 5 0
BBX 5 7 0 0
BITMAP
90
90
a0
c0
a0
90
90
ENDCHAR
STARTCHAR L
ENCODING 76
SWIDTH 500
DWIDTH 5 0
BBX 5 7 0 0
BITMAP
40
40
40
40
40
40
70
ENDCHAR
STARTCHAR M
ENCODING 77
SWIDTH 500
DWIDTH 5 0
BBX 5 7 0 0
BITMAP
88
d8
a8
88
88
88
88
ENDCHAR
STARTCHAR N
ENCODING 78
SWIDTH 500
DWIDTH 5 0
BBX 5 7 0 0
BITMAP
88
c8
a8
a8
98
88
88
ENDCHAR
STARTCHAR O
ENCODING 79
SWIDTH 500
DWIDTH 5 0
BBX 5 7 0 0
BITMAP
70
88
88
88
88
88
70
ENDCHAR
STARTCHAR P
ENCODING 80
SWIDTH 500
DWIDTH 5 0
BBX 5 7 0 0
BITMAP
e0
90
90
e0
80
80
80
ENDCHAR
STARTCHAR Q
ENCODING 81
SWIDTH 500
DWIDTH 5 0
BBX 5 7 0 0
BITMAP
70
88
88
88
a8
90
68
ENDCHAR
STARTCHAR R
ENCODING 82
SWIDTH 500
DWIDTH 5 0
BBX 5 7 0 0
BITMAP
e0
90
90
e0
90
90
90
ENDCHAR
STARTCHAR S
ENCODING 83
SWIDTH 500
DWIDTH 5 0
BBX 5 7 0 0
BITMAP
30
40
40
20
10
10
60
ENDCHAR
STARTCHAR T
ENCODING 84
SWIDTH 500
DWIDTH 5 0
BBX 5 7 0 0
BITMAP
70
20
20
20
20
20
20
ENDCHAR
STARTCHAR U
ENCODING 85
SWIDTH 500
DWIDTH 5 0
BBX 5 7 0 0
BITMAP
88
88
88
88
88
88
70
ENDCHAR
STARTCHAR V
ENCODING 86
SWIDTH 500
DWIDTH 5 0
BBX 5 7 0 0
BITMAP
88
88
88
88
50
50
20
ENDCHAR
STARTCHAR W
ENCODING 87
SWIDTH 500
DWIDTH 5 0
BBX 5 7 0 0
BITMAP
88
88
88
a8
a8
d8
88
ENDCHAR
STARTCHAR X
ENCODING 88
SWIDTH 500
DWIDTH 5 0
BBX 5 7 0 0
BITMAP
88
50
50
20
50
50
88
ENDCHAR
STARTCHAR Y
ENCODING 89
SWIDTH 500
DWIDTH 5 0
BBX 5 7 0 0
BITMAP
88
88
50
50
20
20
20
ENDCHAR
STARTCHAR Z
ENCODING 90
SWIDTH 500
DWIDTH 5 0
BBX 5 7 0 0
BITMAP
f8
08
10
20
40
80
f8
ENDCHAR
STARTCHAR _ampersand
ENCODING 38
SWIDTH 500
DWIDTH 5 0
BBX 5 7 0 0
BITMAP
20
50
50
60
a8
90
68
ENDCHAR
STARTCHAR _asterix
ENCODING 42
SWIDTH 500
DWIDTH 5 0
BBX 5 7 0 0
BITMAP
00
a8
70
f8
70
a8
00
ENDCHAR
STARTCHAR _at
ENCODING 64
SWIDTH 500
DWIDTH 5 0
BBX 5 7 0 0
BITMAP
00
70
98
a8
b8
80
70
ENDCHAR
STARTCHAR _backslash
ENCODING 92
SWIDTH 500
DWIDTH 5 0
BBX 5 7 0 0
BITMAP
80
40
40
20
10
10
08
ENDCHAR
STARTCHAR _backtick
ENCODING 96
SWIDTH 500
DWIDTH 5 0
BBX 5 7 0 0
BITMAP
40
20
00
00
00
00
00
ENDCHAR
STARTCHAR _bang
ENCODING 33
SWIDTH 500
DWIDTH 5 0
BBX 5 7 0 0
BITMAP
20
20
20
20
20
00
20
ENDCHAR
STARTCHAR _bracket_left
ENCODING 91
SWIDTH 500
DWIDTH 5 0
BBX 5 7 0 0
BITMAP
70
40
40
40
40
40
70
ENDCHAR
STARTCHAR _bracket_right
ENCODING 93
SWIDTH 500
DWIDTH 5 0
BBX 5 7 0 0
BITMAP
70
10
10
10
10
10
70
ENDCHAR
STARTCHAR _carrot
ENCODING 94
SWIDTH 500
DWIDTH 5 0
BBX 5 7 0 0
BITMAP
20
50
88
00
00
00
00
ENDCHAR
STARTCHAR _colon
ENCODING 58
SWIDTH 500
DWIDTH 5 0
BBX 5 7 0 0
BITMAP
00
00
20
00
20
00
00
ENDCHAR
STARTCHAR _comma
ENCODING 44
SWIDTH 500
DWIDTH 5 0
BBX 5 7 0 0
BITMAP
00
00
00
00
00
20
40
ENDCHAR
STARTCHAR _curly_left
ENCODING 123
SWIDTH 500
DWIDTH 5 0
BBX 5 7 0 0
BITMAP
30
40
40
80
40
40
30
ENDCHAR
STARTCHAR _curly_right
ENCODING 125
SWIDTH 500
DWIDTH 5 0
BBX 5 7 0 0
BITMAP
60
10
10
08
10
10
60
ENDCHAR
STARTCHAR _dbl_quote
ENCODING 34
SWIDTH 500
DWIDTH 5 0
BBX 5 7 0 0
BITMAP
50
50
00
00
00
00
00
ENDCHAR
STARTCHAR _dolla
ENCODING 36
SWIDTH 500
DWIDTH 5 0
BBX 5 7 0 0
BITMAP
20
70
a0
60
30
28
70
ENDCHAR
STARTCHAR _dot
ENCODING 46
SWIDTH 500
DWIDTH 5 0
BBX 5 7 0 0
BITMAP
00
00
00
00
00
00
20
ENDCHAR
STARTCHAR _equal
ENCODING 61
SWIDTH 500
DWIDTH 5 0
BBX 5 7 0 0
BITMAP
00
00
70
00
70
00
00
ENDCHAR
STARTCHAR _greater
ENCODING 62
SWIDTH 500
DWIDTH 5 0
BBX 5 7 0 0
BITMAP
00
40
20
10
20
40
00
ENDCHAR
STARTCHAR _less
ENCODING 60
SWIDTH 500
DWIDTH 5 0
BBX 5 7 0 0
BITMAP
00
10
20
40
20
10
00
ENDCHAR
STARTCHAR _lonely_quote
ENCODING 39
SWIDTH 500
DWIDTH 5 0
BBX 5 7 0 0
BITMAP
20
20
00
00
00
00
00
ENDCHAR
STARTCHAR _minus
ENCODING 45
SWIDTH 500
DWIDTH 5 0
BBX 5 7 0 0
BITMAP
00
00
00
70
00
00
00
ENDCHAR
STARTCHAR _obelix
ENCODING 47
SWIDTH 500
DWIDTH 5 0
BBX 5 7 0 0
BITMAP
08
10
10
20
40
40
80
ENDCHAR
STARTCHAR _paren_left
ENCODING 40
SWIDTH 500
DWIDTH 5 0
BBX 5 7 0 0
BITMAP
10
20
40
40
40
20
10
ENDCHAR
STARTCHAR _paren_right
ENCODING 41
SWIDTH 500
DWIDTH 5 0
BBX 5 7 0 0
BITMAP
40
20
10
10
10
20
40
ENDCHAR
STARTCHAR _percent
ENCODING 37
SWIDTH 500
DWIDTH 5 0
BBX 5 7 0 0
BITMAP
00
48
10
20
40
90
00
ENDCHAR
STARTCHAR _pipe
ENCODING 124
SWIDTH 500
DWIDTH 5 0
BBX 5 7 0 0
BITMAP
20
20
20
20
20
20
20
ENDCHAR
STARTCHAR _plus
ENCODING 43
SWIDTH 500
DWIDTH 5 0
BBX 5 7 0 0
BITMAP
00
20
20
f8
20
20
00
ENDCHAR
STARTCHAR _pound
ENCODING 35
SWIDTH 500
DWIDTH 5 0
BBX 5 7 0 0
BITMAP
00
50
f8
50
f8
50
00
ENDCHAR
STARTCHAR _question
ENCODING 63
SWIDTH 500
DWIDTH 5 0
BBX 5 7 0 0
BITMAP
20
50
50
10
20
00
20
ENDCHAR
STARTCHAR _sad_colon
ENCODING 59
SWIDTH 500
DWIDTH 5 0
BBX 5 7 0 0
BITMAP
00
00
20
00
00
20
40
ENDCHAR
STARTCHAR _space
ENCODING 32
SWIDTH 500
DWIDTH 5 0
BBX 5 7 0 0
BITMAP
00
00
00
00
00
00
00
ENDCHAR
STARTCHAR _tilde
ENCODING 126
SWIDTH 500
DWIDTH 5 0
BBX 5 7 0 0
BITMAP
00
00
40
a8
10
00
00
ENDCHAR
STARTCHAR _underscore
ENCODING 95
SWIDTH 500
DWIDTH 5 0
BBX 5 7 0 0
BITMAP
00
00
00
00
00
00
f8
ENDCHAR
STARTCHAR a
ENCODING 97
SWIDTH 500
DWIDTH 5 0
BBX 5 7 0 0
BITMAP
00
00
60
10
70
90
68
ENDCHAR
STARTCHAR b
ENCODING 98
SWIDTH 500
DWIDTH 5 0
BBX 5 7 0 0
BITMAP
00
40
40
40
60
50
60
ENDCHAR
STARTCHAR c
ENCODING 99
SWIDTH 500
DWIDTH 5 0
BBX 5 7 0 0
BITMAP
00
00
00
30
40
40
30
ENDCHAR
STARTCHAR d
ENCODING 100
SWIDTH 500
DWIDTH 5 0
BBX 5 7 0 0
BITMAP
00
10
10
10
30
50
30
ENDCHAR
STARTCHAR e
ENCODING 101
SWIDTH 500
DWIDTH 5 0
BBX 5 7 0 0
BITMAP
00
00
20
50
70
40
30
ENDCHAR
STARTCHAR f
ENCODING 102
SWIDTH 500
DWIDTH 5 0
BBX 5 7 0 0
BITMAP
00
20
50
40
60
40
40
ENDCHAR
STARTCHAR g
ENCODING 103
SWIDTH 500
DWIDTH 5 0
BBX 5 7 0 0
BITMAP
00
00
30
50
70
10
60
ENDCHAR
STARTCHAR h
ENCODING 104
SWIDTH 500
DWIDTH 5 0
BBX 5 7 0 0
BITMAP
00
40
40
60
50
50
50
ENDCHAR
STARTCHAR i
ENCODING 105
SWIDTH 500
DWIDTH 5 0
BBX 5 7 0 0
BITMAP
00
00
20
00
20
20
20
ENDCHAR
STARTCHAR j
ENCODING 106
SWIDTH 500
DWIDTH 5 0
BBX 5 7 0 0
BITMAP
00
00
10
00
10
50
20
ENDCHAR
STARTCHAR k
ENCODING 107
SWIDTH 500
DWIDTH 5 0
BBX 5 7 0 0
BITMAP
00
40
40
60
50
60
50
ENDCHAR
STARTCHAR l
ENCODING 108
SWIDTH 500
DWIDTH 5 0
BBX 5 7 0 0
BITMAP
00
20
20
20
20
20
10
ENDCHAR
STARTCHAR m
ENCODING 109
SWIDTH 500
DWIDTH 5 0
BBX 5 7 0 0
BITMAP
00
00
00
80
d8
a8
a8
ENDCHAR
STARTCHAR n
ENCODING 110
SWIDTH 500
DWIDTH 5 0
BBX 5 7 0 0
BITMAP
00
00
00
80
e0
90
90
ENDCHAR
STARTCHAR o
ENCODING 111
SWIDTH 500
DWIDTH 5 0
BBX 5 7 0 0
BITMAP
00
00
00
60
90
90
60
ENDCHAR
STARTCHAR p
ENCODING 112
SWIDTH 500
DWIDTH 5 0
BBX 5 7 0 0
BITMAP
00
00
00
20
50
60
40
ENDCHAR
STARTCHAR q
ENCODING 113
SWIDTH 500
DWIDTH 5 0
BBX 5 7 0 0
BITMAP
00
00
00
20
50
30
10
ENDCHAR
STARTCHAR r
ENCODING 114
SWIDTH 500
DWIDTH 5 0
BBX 5 7 0 0
BITMAP
00
00
00
40
70
40
40
ENDCHAR
STARTCHAR s
ENCODING 115
SWIDTH 500
DWIDTH 5 0
BBX 5 7 0 0
BITMAP
00
00
30
40
20
10
60
ENDCHAR
STARTCHAR t
ENCODING 116
SWIDTH 500
DWIDTH 5 0
BBX 5 7 0 0
BITMAP
00
20
20
70
20
20
20
ENDCHAR
STARTCHAR u
ENCODING 117
SWIDTH 500
DWIDTH 5 0
BBX 5 7 0 0
BITMAP
00
00
00
00
50
50
70
ENDCHAR
STARTCHAR v
ENCODING 118
SWIDTH 500
DWIDTH 5 0
BBX 5 7 0 0
BITMAP
00
00
00
00
50
50
20
ENDCHAR
STARTCHAR w
ENCODING 119
SWIDTH 500
DWIDTH 5 0
BBX 5 7 0 0
BITMAP
00
00
00
00
88
a8
50
ENDCHAR
STARTCHAR x
ENCODING 120
SWIDTH 500
DWIDTH 5 0
BBX 5 7 0 0
BITMAP
00
00
00
00
50
20
50
ENDCHAR
STARTCHAR y
ENCODING 121
SWIDTH 500
DWIDTH 5 0
BBX 5 7 0 0
BITMAP
00
00
00
50
30
10
20
ENDCHAR
STARTCHAR z
ENCODING 122
SWIDTH 500
DWIDTH 5 0
BBX 5 7 0 0
BITMAP
00
00
00
70
10
20
70
ENDCHAR
ENDFONT
